# This file uses centimeters as units for non-parametric coordinates.

mtllib asteroid2.mtl
g default
v 2.818903 25.448708 1.929600
v 5.187004 14.489907 -3.200600
v 12.130603 12.874306 -12.968600
v 10.567003 7.928508 -14.651900
v -12.664997 15.036507 11.221900
v -7.212696 9.247206 6.696300
v -20.626297 8.967107 11.459900
v -11.621197 22.001608 12.817600
v -20.496197 12.796607 14.440600
v -25.184696 5.265708 14.669100
v -30.579096 6.932408 23.974701
v -25.564697 13.854207 31.448299
v -20.767796 21.180508 27.509899
v -17.467596 20.930305 32.292500
v -8.214896 27.139408 24.705999
v -10.173297 23.739508 13.231800
v -1.084096 29.901306 11.712200
v 14.342203 22.344608 -2.322200
v 18.840002 18.884808 -0.608300
v 17.795103 3.741208 -3.459800
v 18.411003 9.697408 -6.327700
v 23.672604 -15.234593 -19.044500
v 21.205704 9.340808 -15.292300
v 25.363903 -8.109893 -22.909100
v 19.964603 -18.998293 -21.348200
v 4.294104 -25.839594 -11.626600
v -7.622096 -8.895892 -5.562200
v -14.249596 -18.451794 2.217700
v -6.398996 -21.716192 -1.274200
v -26.327496 2.412108 25.288401
v -21.209196 -12.913892 6.338900
v -12.703196 -21.936092 8.205900
v -23.077396 -7.203093 23.052299
v -2.232296 17.742607 24.566200
v -4.480197 4.548507 24.317600
v -6.184497 -7.812493 17.891701
v 0.636204 8.518107 19.482000
v 5.297904 -7.863293 -16.494400
v -21.673996 -10.974393 6.225200
v -22.946896 -4.813592 9.811400
v -22.489897 -1.811794 10.297000
v -21.179096 1.273307 29.227100
v 3.335604 23.890009 17.764400
v 15.847004 -21.634193 -13.328500
v 4.833704 -23.702492 -4.495000
v -0.528996 -25.308594 -2.395700
v 3.861904 -22.248793 -1.178100
v 8.742404 -20.833294 -5.683900
v 9.837403 -3.424093 4.504300
v 16.600603 -17.540993 -10.619000
vt 0.816300 0.965500
vt 0.547300 0.763500
vt 0.906000 0.898200
vt 0.726700 0.763500
vt 0.692000 0.646100
vt 0.547300 0.628900
vt 0.726700 0.628900
vt 0.848900 0.790200
vt 0.906000 0.830900
vt 0.963100 0.790200
vt 0.948600 0.719800
vt 0.869500 0.516500
vt 0.009300 0.830900
vt 0.066400 0.790200
vt 0.009300 0.898200
vt 0.153900 0.646100
vt 0.051900 0.719800
vt 0.080400 0.655100
vt 0.245700 0.790200
vt 0.368000 0.696200
vt 0.296800 0.655100
vt 0.223300 0.646100
vt 0.457600 0.728200
vt 0.510800 0.516500
vt 0.619300 0.518400
vt 0.511900 0.394400
vt 0.637000 0.212300
vt 0.671700 0.329800
vt 0.726700 0.247600
vt 0.798600 0.518400
vt 0.858900 0.256000
vt 0.959200 0.459300
vt 0.961000 0.329800
vt 0.976400 0.402500
vt 0.953100 0.256000
vt 0.081200 0.518400
vt 0.188600 0.391600
vt 0.188600 0.517500
vt 0.241800 0.459300
vt 0.332600 0.394400
vt 0.079700 0.402500
vt 0.141600 0.256000
vt 0.422200 0.581500
vt 0.368000 0.517500
vt 0.368000 0.391600
vt 0.278300 0.279600
vt 0.062500 0.459300
vt 0.977900 0.518400
vt 0.960300 0.581500
vt 0.063500 0.581500
vt 0.977100 0.655100
vt 0.492300 0.329800
vt 0.726700 0.121700
vt 0.995700 0.077600
vt 0.906000 0.121700
vt 0.906000 0.010300
vt 0.099000 0.077600
vt 0.041800 0.185600
vt 0.009300 0.121700
vt 0.938600 0.185600
vt 0.056300 0.256000
vt 0.064300 0.329800
vt 0.547300 0.121700
vt 0.415000 0.256000
vt 0.368000 0.010300
vn -0.641978 0.327889 -0.693076
vn -0.598020 0.260909 -0.757825
vn -0.663799 0.161800 -0.730199
vn -0.663799 0.161800 -0.730199
vn -0.598020 0.260909 -0.757825
vn -0.719500 0.235900 -0.653200
vn -0.598020 0.260909 -0.757825
vn -0.558792 0.471993 -0.681890
vn -0.719500 0.235900 -0.653200
vn 0.044401 0.825118 -0.563213
vn 0.081396 0.769063 -0.633969
vn -0.195704 0.667412 -0.718513
vn -0.740900 0.380400 -0.553500
vn -0.367000 0.528799 -0.765299
vn -0.480001 0.250301 -0.840802
vn -0.663799 0.161800 -0.730199
vn -0.719500 0.235900 -0.653200
vn -0.660823 0.191407 -0.725725
vn -0.618512 0.167503 -0.767715
vn -0.518183 0.384087 -0.764175
vn -0.489220 0.275111 -0.827634
vn -0.489220 0.275111 -0.827634
vn -0.518183 0.384087 -0.764175
vn -0.326789 0.491283 -0.807372
vn -0.326789 0.491283 -0.807372
vn -0.416589 0.556086 -0.719182
vn -0.468486 0.468886 -0.748777
vn -0.680566 0.380781 -0.625968
vn -0.702391 0.314196 -0.638692
vn -0.601503 0.476903 -0.640904
vn -0.416589 0.556086 -0.719182
vn -0.511801 0.514101 -0.688302
vn -0.385811 0.574816 -0.721621
vn -0.489220 0.275111 -0.827634
vn -0.514319 0.476518 -0.713026
vn -0.596504 0.665805 -0.448203
vn -0.692675 0.679975 -0.240491
vn -0.738589 0.554592 -0.383294
vn -0.776304 0.607503 -0.168201
vn -0.458996 0.401197 -0.792694
vn -0.771834 0.011100 -0.635728
vn -0.775907 0.358903 -0.518804
vn -0.775907 0.358903 -0.518804
vn -0.771834 0.011100 -0.635728
vn -0.901597 -0.161000 -0.401499
vn -0.486798 0.829297 -0.274399
vn -0.692675 0.679975 -0.240491
vn -0.456713 0.879826 -0.131604
vn -0.692675 0.679975 -0.240491
vn -0.776304 0.607503 -0.168201
vn -0.556207 0.825410 0.096601
vn -0.494815 0.840425 -0.221007
vn -0.439798 0.893696 0.088800
vn -0.409580 0.909855 -0.066397
vn -0.439798 0.893696 0.088800
vn 0.155707 0.646527 0.746832
vn -0.409580 0.909855 -0.066397
vn -0.871326 0.489014 0.040701
vn -0.685903 0.065900 0.724703
vn -0.692483 0.639884 0.333192
vn -0.692483 0.639884 0.333192
vn -0.685903 0.065900 0.724703
vn -0.156595 0.188194 0.969567
vn -0.453397 0.884193 -0.112399
vn -0.039198 0.991855 0.121194
vn 0.006800 0.999929 -0.009800
vn -0.538680 0.641576 -0.546080
vn 0.142303 0.963323 -0.227505
vn -0.326620 0.706942 -0.627338
vn -0.326620 0.706942 -0.627338
vn 0.142303 0.963323 -0.227505
vn 0.060299 0.877488 -0.475793
vn 0.475195 0.768493 -0.428496
vn 0.961134 0.271610 0.049502
vn 0.817579 0.497287 -0.290293
vn 0.982027 0.097503 0.161604
vn 0.901271 -0.043299 0.431086
vn 0.893984 0.080599 0.440792
vn 0.901271 -0.043299 0.431086
vn 0.947023 0.067902 0.313907
vn 0.893984 0.080599 0.440792
vn -0.321114 0.254011 -0.912340
vn -0.269208 0.299509 -0.915326
vn -0.329909 0.207505 -0.920924
vn -0.269208 0.299509 -0.915326
vn -0.484684 0.170694 -0.857872
vn -0.329909 0.207505 -0.920924
vn -0.329909 0.207505 -0.920924
vn -0.246797 0.027100 -0.968688
vn -0.292691 0.182294 -0.938670
vn -0.246797 0.027100 -0.968688
vn -0.449201 0.038500 -0.892601
vn -0.254604 -0.146302 -0.955914
vn -0.546975 0.483978 -0.683069
vn -0.493226 0.376420 -0.784242
vn -0.668802 0.358301 -0.651402
vn -0.611798 -0.064300 -0.788397
vn -0.598771 -0.240488 -0.763963
vn -0.738489 0.092499 -0.667890
vn -0.876718 -0.158303 -0.454209
vn -0.602519 -0.268108 -0.751724
vn -0.821504 -0.437902 -0.365202
vn -0.559491 -0.037499 -0.827987
vn -0.656622 -0.286409 -0.697723
vn -0.639007 -0.536406 -0.551306
vn -0.937982 -0.341593 0.059199
vn -0.959029 -0.258108 0.116804
vn -0.830315 -0.296605 0.471808
vn -0.648383 -0.264793 0.713781
vn -0.050699 -0.606483 0.793478
vn -0.055200 -0.222398 0.973392
vn -0.055200 -0.222398 0.973392
vn -0.050699 -0.606483 0.793478
vn 0.288591 -0.489985 0.822575
vn -0.870741 -0.491723 -0.004300
vn -0.628004 -0.743104 0.231101
vn -0.749308 -0.627707 0.211002
vn 0.545317 0.184706 0.817626
vn 0.381894 0.150398 0.911887
vn 0.453591 0.441992 0.773885
vn 0.381894 0.150398 0.911887
vn 0.566988 0.050399 0.822183
vn 0.453591 0.441992 0.773885
vn 0.216304 -0.003900 0.976318
vn 0.550713 -0.278907 0.786719
vn 0.517817 -0.084303 0.851328
vn 0.517817 -0.084303 0.851328
vn 0.550713 -0.278907 0.786719
vn 0.798669 -0.133495 0.586777
vn 0.550713 -0.278907 0.786719
vn 0.534188 -0.435790 0.724383
vn 0.711018 -0.312908 0.629716
vn -0.269208 0.299509 -0.915326
vn 0.067698 0.594182 -0.801476
vn 0.233600 0.576899 -0.782699
vn 0.409713 0.664820 -0.624619
vn 0.176198 0.679093 -0.712592
vn 0.264509 0.696023 -0.667523
vn -0.450078 -0.101895 -0.887157
vn -0.602895 -0.067099 -0.794994
vn -0.369888 -0.086197 -0.925069
vn -0.602895 -0.067099 -0.794994
vn -0.612822 -0.288110 -0.735827
vn -0.522996 -0.325597 -0.787694
vn -0.579222 0.454917 -0.676426
vn -0.511801 0.514101 -0.688302
vn -0.601503 0.476903 -0.640904
vn -0.565114 0.401510 -0.720719
vn -0.601503 0.476903 -0.640904
vn -0.702391 0.314196 -0.638692
vn -0.870741 -0.491723 -0.004300
vn -0.972549 -0.220311 -0.074904
vn -0.960787 -0.207797 -0.183598
vn -0.972549 -0.220311 -0.074904
vn -0.971773 -0.022999 -0.234794
vn -0.960787 -0.207797 -0.183598
vn -0.923892 0.079999 -0.374197
vn -0.786923 0.253407 -0.562616
vn -0.738489 0.092499 -0.667890
vn -0.680593 -0.547295 0.487095
vn -0.754637 -0.092905 0.649532
vn -0.998102 -0.055100 0.027500
vn -0.680593 -0.547295 0.487095
vn -0.998102 -0.055100 0.027500
vn -0.821720 -0.567014 -0.057201
vn -0.917904 -0.114901 -0.379802
vn -0.901597 -0.161000 -0.401499
vn -0.771834 0.011100 -0.635728
vn -0.917904 -0.114901 -0.379802
vn -0.771834 0.011100 -0.635728
vn -0.786923 0.253407 -0.562616
vn -0.786923 0.253407 -0.562616
vn -0.771834 0.011100 -0.635728
vn -0.645044 0.264118 -0.717049
vn -0.786923 0.253407 -0.562616
vn -0.645044 0.264118 -0.717049
vn -0.668802 0.358301 -0.651402
vn 0.285304 -0.042101 0.957512
vn 0.469900 -0.156700 0.868700
vn 0.264599 -0.029800 0.963898
vn 0.274009 -0.147605 0.950332
vn -0.134003 -0.388809 0.911521
vn -0.410293 -0.128998 0.902784
vn 0.438794 -0.237297 0.866689
vn -0.156595 0.188194 0.969567
vn -0.134003 -0.388809 0.911521
vn 0.769518 -0.003500 0.638615
vn 0.770185 -0.110998 0.628088
vn 0.783662 -0.078796 0.616170
vn 0.770185 -0.110998 0.628088
vn 0.679676 -0.351188 0.643978
vn 0.738398 -0.256699 0.623598
vn 0.770185 -0.110998 0.628088
vn 0.738398 -0.256699 0.623598
vn 0.783662 -0.078796 0.616170
vn 0.783662 -0.078796 0.616170
vn 0.738398 -0.256699 0.623598
vn 0.813785 -0.251995 0.523691
vn 0.888399 0.286500 0.358700
vn 0.636821 0.707424 0.306610
vn 0.771208 0.101701 0.628407
vn 0.624098 0.779198 -0.057900
vn 0.285207 0.948523 -0.137703
vn 0.636821 0.707424 0.306610
vn 0.687598 0.456798 0.564398
vn 0.454395 0.798290 0.395295
vn 0.371612 0.786225 0.493716
vn 0.069600 -0.872904 -0.482902
vn 0.081896 -0.666867 -0.740663
vn 0.690025 -0.704726 0.165006
vn 0.732862 -0.680365 -0.004200
vn 0.383398 -0.545198 -0.745497
vn 0.519210 -0.345007 -0.781915
vn 0.732862 -0.680365 -0.004200
vn 0.519210 -0.345007 -0.781915
vn 0.852292 -0.519295 0.062699
vn 0.584725 -0.463720 0.665628
vn 0.566808 -0.600708 0.563808
vn 0.598694 -0.572394 0.560295
vn 0.598694 -0.572394 0.560295
vn 0.566808 -0.600708 0.563808
vn 0.592585 -0.611785 0.523987
vn 0.249000 -0.861300 0.442900
vn -0.177398 -0.983087 -0.045499
vn -0.043799 -0.928479 0.368792
vn 0.249000 -0.861300 0.442900
vn -0.043799 -0.928479 0.368792
vn 0.566808 -0.600708 0.563808
vn 0.566808 -0.600708 0.563808
vn 0.152703 -0.969520 0.191604
vn 0.592585 -0.611785 0.523987
vn 0.592585 -0.611785 0.523987
vn 0.152703 -0.969520 0.191604
vn 0.069600 -0.872904 -0.482902
vn -0.177398 -0.983087 -0.045499
vn -0.423802 -0.905705 -0.009500
vn -0.043799 -0.928479 0.368792
vn 0.152703 -0.969520 0.191604
vn -0.535376 -0.797765 -0.277388
vn -0.507511 -0.587913 -0.629914
vn -0.539606 -0.782608 -0.310403
vn -0.736858 -0.644664 -0.203589
vn -0.678428 -0.564723 -0.469919
vn -0.539606 -0.782608 -0.310403
vn -0.678428 -0.564723 -0.469919
vn -0.423802 -0.905705 -0.009500
vn 0.512012 -0.538013 0.669616
vn 0.410085 -0.548779 0.728472
vn 0.300316 -0.598332 0.742839
vn 0.512012 -0.538013 0.669616
vn 0.300316 -0.598332 0.742839
vn 0.472190 -0.435890 0.766183
vn 0.410085 -0.548779 0.728472
vn 0.372593 -0.514990 0.771985
vn 0.242788 -0.644467 0.725063
vn 0.687763 -0.236987 0.686163
vn 0.727014 -0.321106 0.606912
vn 0.731117 -0.322507 0.601214
vn 0.687763 -0.236987 0.686163
vn 0.731117 -0.322507 0.601214
vn 0.552483 -0.503484 0.664279
vn 0.552483 -0.503484 0.664279
vn 0.731117 -0.322507 0.601214
vn 0.628395 -0.443196 0.639294
vn 0.552483 -0.503484 0.664279
vn 0.628395 -0.443196 0.639294
vn 0.585370 -0.408279 0.700464
vn 0.766124 -0.225807 0.601719
vn 0.783519 -0.026201 0.620815
vn 0.732321 -0.317109 0.602617
vn 0.678802 -0.367401 0.635802
vn 0.711018 -0.312908 0.629716
vn 0.654215 -0.409409 0.635914
vn 0.535586 -0.661783 0.524586
vn 0.743214 -0.606111 0.283305
vn 0.699372 -0.441783 0.561878
vn 0.743214 -0.606111 0.283305
vn 0.786408 -0.273003 0.554105
vn 0.699372 -0.441783 0.561878
vn 0.761110 -0.266804 0.591208
vn 0.794394 -0.156499 0.586896
vn 0.802823 -0.158305 0.574817
vn 0.965734 -0.258009 0.028101
vn 0.960230 0.041501 0.276109
vn 0.943014 -0.110402 0.313905
vn 0.794394 -0.156499 0.586896
vn 0.869012 -0.031200 0.493807
vn 0.802823 -0.158305 0.574817
s off
g asteroid
usemtl asteroid2:initialShadingGroup
f 16/1/1 1/2/2 8/3/3
f 8/3/4 1/2/5 2/4/6
f 1/2/7 3/5/8 2/4/9
f 1/2/10 18/6/11 3/5/12
f 2/4/13 3/5/14 4/7/15
f 8/3/16 2/4/17 6/8/18
f 8/3/19 6/8/20 5/9/21
f 5/9/22 6/8/23 9/10/24
f 9/10/25 6/8/26 7/11/27
f 2/4/28 4/7/29 6/8/30
f 6/8/31 27/12/32 7/11/33
f 5/13/34 9/14/35 8/15/36
f 8/15/37 9/14/38 11/16/39
f 7/17/40 10/18/41 9/14/42
f 9/14/43 10/18/44 11/16/45
f 16/1/46 8/15/47 13/19/48
f 8/15/49 11/16/50 13/19/51
f 16/1/52 13/19/53 15/20/54
f 13/19/55 14/21/56 15/20/57
f 11/16/58 12/22/59 13/19/60
f 13/19/61 12/22/62 14/21/63
f 16/1/64 15/20/65 17/23/66
f 16/1/67 17/23/68 1/2/69
f 1/2/70 17/23/71 18/6/72
f 18/6/73 19/24/74 23/25/75
f 19/24/76 21/26/77 23/25/78
f 21/26/79 22/27/80 23/25/81
f 3/5/82 24/28/83 4/7/84
f 24/28/85 25/29/86 4/7/87
f 4/7/88 25/29/89 38/30/90
f 25/29/91 26/31/92 38/30/93
f 7/11/94 27/12/95 39/32/96
f 27/12/97 28/33/98 39/32/99
f 39/32/100 28/33/101 31/34/102
f 28/33/103 26/31/104 29/35/105
f 40/36/106 33/37/107 30/38/108
f 30/38/109 33/37/110 42/39/111
f 42/39/112 33/37/113 35/40/114
f 31/41/115 32/42/116 33/37/117
f 15/20/118 14/21/119 43/43/120
f 14/21/121 34/44/122 43/43/123
f 42/39/124 35/40/125 34/44/126
f 34/44/127 35/40/128 37/45/129
f 35/40/130 36/46/131 37/45/132
f 24/28/133 3/5/134 23/25/135
f 23/25/136 3/5/137 18/6/138
f 26/31/139 28/33/140 38/30/141
f 28/33/142 27/12/143 38/30/144
f 38/30/145 27/12/146 6/8/147
f 38/30/148 6/8/149 4/7/150
f 31/41/151 33/37/152 39/47/153
f 33/37/154 40/36/155 39/47/156
f 40/48/157 41/49/158 39/32/159
f 30/38/160 12/22/161 11/16/162
f 30/38/163 11/16/164 40/36/165
f 40/36/166 11/16/167 10/18/168
f 40/36/169 10/18/170 41/50/171
f 41/49/172 10/51/173 7/11/174
f 41/49/175 7/11/176 39/32/177
f 34/44/178 14/21/179 42/39/180
f 42/39/181 12/22/182 30/38/183
f 42/39/184 14/21/185 12/22/186
f 20/52/187 21/26/188 37/45/189
f 21/26/190 19/24/191 43/43/192
f 21/26/193 43/43/194 37/45/195
f 37/45/196 43/43/197 34/44/198
f 19/24/199 17/23/200 43/43/201
f 19/24/202 18/6/203 17/23/204
f 43/43/205 17/23/206 15/20/207
f 26/31/208 25/29/209 44/53/210
f 44/53/211 25/29/212 24/28/213
f 44/53/214 24/28/215 22/27/216
f 47/54/217 45/55/218 48/56/219
f 48/56/220 45/55/221 44/53/222
f 47/57/223 32/42/224 46/58/225
f 47/57/226 46/58/227 45/59/228
f 45/55/229 46/60/230 44/53/231
f 44/53/232 46/60/233 26/31/234
f 32/42/235 29/61/236 46/58/237
f 46/60/238 29/35/239 26/31/240
f 32/42/241 31/41/242 28/62/243
f 32/42/244 28/62/245 29/61/246
f 47/57/247 36/46/248 33/37/249
f 47/57/250 33/37/251 32/42/252
f 36/46/253 35/40/254 33/37/255
f 50/63/256 20/52/257 49/64/258
f 50/63/259 49/64/260 48/65/261
f 48/65/262 49/64/263 36/46/264
f 48/65/265 36/46/266 47/57/267
f 20/52/268 37/45/269 49/64/270
f 49/64/271 37/45/272 36/46/273
f 48/65/274 44/53/275 50/63/276
f 44/53/277 22/27/278 50/63/279
f 50/63/280 22/27/281 20/52/282
f 24/28/283 23/25/284 22/27/285
f 22/27/286 21/26/287 20/52/288
