# This file uses centimeters as units for non-parametric coordinates.

mtllib asteroid5.mtl
g default
v 19.198196 -8.734000 -21.730474
v 24.546797 10.234055 -11.983276
v 20.951096 -12.316400 -17.896475
v 17.114096 -15.035900 -17.149475
v 0.340796 0.522100 -36.250378
v -2.374104 -3.872900 -34.003178
v 2.602096 -13.000200 -20.921274
v -1.326104 -12.328200 -17.362974
v 0.229497 6.276100 -34.595177
v -7.177803 1.869600 -29.618378
v -9.026904 1.779300 -25.427776
v -12.901604 9.547600 -5.589176
v -4.717703 12.042000 -12.323375
v 4.003096 3.930300 -36.914474
v -11.399004 21.989300 -7.635675
v 4.310996 18.087400 -18.073574
v 21.324396 5.609000 -19.064978
v 10.487496 20.209900 8.402725
v 12.176096 10.029000 11.845125
v 23.071896 -1.856900 2.738824
v 16.138296 -16.251301 -3.571975
v 19.727497 -0.404900 11.559125
v 10.903296 -15.280900 1.975725
v 2.706296 -9.436800 16.020599
v -18.120003 -3.730207 -8.234877
v -15.663757 3.478352 3.450510
v -3.491304 -6.024200 5.053925
v -13.017004 -0.592000 15.899025
v -16.750402 3.772100 16.125225
v -23.760904 13.082300 15.115225
v -21.305202 27.669100 4.996625
v -23.657804 21.843599 3.425525
v -12.783003 25.056400 20.645025
v -2.518204 33.187153 -3.306076
v -6.906804 31.891701 12.930125
v 1.419397 29.539900 5.064225
v 24.696196 -6.648100 -4.006376
v 0.510896 -14.761400 -6.075876
v -19.621202 1.253793 -12.086775
v -16.605904 6.195700 -16.974976
v -17.179804 22.894800 -8.376975
v 12.876996 22.751554 -4.575475
v 5.382696 -3.058200 23.159500
v -3.725704 8.199600 21.965225
v -7.007603 7.087600 21.517426
v -2.933604 5.196800 21.030025
v -10.912304 5.727500 19.920425
v -8.248303 11.559400 23.867624
v 0.983697 6.949700 21.938826
v -6.456503 17.427000 25.313625
vt 0.504700 0.719800
vt 0.528100 0.573400
vt 0.655500 0.655100
vt 0.637000 0.728200
vt 0.692000 0.646100
vt 0.906000 0.898200
vt 0.457600 0.965500
vt 0.906000 0.830900
vt 0.816300 0.728200
vt 0.834900 0.655100
vt 0.099000 0.965500
vt 0.009300 0.898200
vt 0.188600 0.898200
vt 0.009300 0.830900
vt 0.963100 0.790200
vt 0.066400 0.790200
vt 0.188600 0.763500
vt 0.948600 0.719800
vt 0.051900 0.719800
vt 0.080400 0.655100
vt 0.960300 0.581500
vt 0.368000 0.696200
vt 0.259800 0.655100
vt 0.188600 0.628900
vt 0.423000 0.329800
vt 0.582700 0.394400
vt 0.500300 0.256000
vt 0.594400 0.256000
vt 0.600500 0.459300
vt 0.708900 0.457400
vt 0.726700 0.391600
vt 0.798600 0.518400
vt 0.816300 0.346900
vt 0.773700 0.256000
vt 0.959200 0.459300
vt 0.977900 0.518400
vt 0.924500 0.320700
vt 0.976400 0.402500
vt 0.961000 0.329800
vt 0.079700 0.402500
vt 0.064300 0.329800
vt 0.133700 0.329800
vt 0.170900 0.457400
vt 0.206400 0.457400
vt 0.235700 0.256000
vt 0.278300 0.346900
vt 0.331500 0.516500
vt 0.332600 0.394400
vt 0.439900 0.518400
vt 0.081200 0.518400
vt 0.062500 0.459300
vt 0.063500 0.581500
vt 0.977100 0.655100
vt 0.547300 0.010300
vt 0.906000 0.121700
vt 0.726700 0.121700
vt 0.099000 0.077600
vt 0.099000 0.145000
vt 0.009300 0.121700
vt 0.995700 0.077600
vt 0.041800 0.185600
vt 0.056300 0.256000
vt 0.938600 0.185600
vt 0.953100 0.256000
vt 0.278300 0.145000
vn 0.817950 0.092306 -0.567835
vn 0.961874 0.057898 -0.267293
vn 0.956438 -0.101804 -0.273611
vn 0.817950 0.092306 -0.567835
vn 0.956438 -0.101804 -0.273611
vn 0.738322 -0.042301 -0.673120
vn 0.246895 -0.543490 -0.802285
vn 0.716065 -0.598471 -0.359282
vn 0.343207 -0.888118 -0.305706
vn -0.544471 0.112094 -0.831256
vn -0.296400 -0.141000 -0.944598
vn -0.704854 -0.128292 -0.697655
vn 0.003800 -0.189206 -0.981930
vn 0.019000 -0.341497 -0.939691
vn -0.058699 -0.384691 -0.921177
vn -0.296400 -0.141000 -0.944598
vn -0.547301 -0.237600 -0.802501
vn -0.704854 -0.128292 -0.697655
vn -0.704854 -0.128292 -0.697655
vn -0.547301 -0.237600 -0.802501
vn -0.851972 -0.297890 -0.430586
vn 0.019000 -0.341497 -0.939691
vn -0.044002 -0.804640 -0.592130
vn -0.027000 -0.740886 -0.671088
vn -0.255809 0.281510 -0.924832
vn -0.544471 0.112094 -0.831256
vn -0.541269 0.460774 -0.703360
vn -0.544471 0.112094 -0.831256
vn -0.704854 -0.128292 -0.697655
vn -0.639770 0.212290 -0.738666
vn -0.704854 -0.128292 -0.697655
vn -0.851972 -0.297890 -0.430586
vn -0.754500 -0.001100 -0.656300
vn -0.704854 -0.128292 -0.697655
vn -0.754500 -0.001100 -0.656300
vn -0.639770 0.212290 -0.738666
vn -0.524287 0.476588 -0.705682
vn -0.497886 0.315091 -0.807977
vn -0.294899 0.362499 -0.884098
vn -0.851972 -0.297890 -0.430586
vn -0.856976 -0.313691 -0.408889
vn -0.754500 -0.001100 -0.656300
vn -0.754500 -0.001100 -0.656300
vn -0.856976 -0.313691 -0.408889
vn -0.825897 -0.093600 -0.555998
vn -0.497886 0.315091 -0.807977
vn -0.443288 0.080298 -0.892776
vn -0.294899 0.362499 -0.884098
vn -0.887806 -0.334202 -0.316402
vn -0.869206 -0.259302 -0.421003
vn -0.786822 -0.199005 -0.584216
vn -0.541269 0.460774 -0.703360
vn -0.529322 0.315613 -0.787532
vn -0.269092 0.515285 -0.813677
vn -0.269092 0.515285 -0.813677
vn -0.529322 0.315613 -0.787532
vn -0.289391 0.252992 -0.923173
vn -0.559008 -0.228303 -0.797112
vn -0.567734 -0.134508 -0.812149
vn -0.331588 0.426785 -0.841370
vn -0.184804 0.265905 -0.946119
vn -0.472615 0.265808 -0.840227
vn 0.174599 0.755798 -0.631098
vn -0.040101 0.229307 -0.972528
vn 0.021000 0.337200 -0.941199
vn 0.195802 0.101201 -0.975408
vn 0.404495 0.337496 -0.849989
vn 0.741696 0.376798 -0.554897
vn 0.480177 -0.037798 -0.876357
vn 0.813135 0.548224 0.195608
vn 0.783625 0.412613 0.464415
vn 0.815668 0.396385 0.421384
vn 0.841447 0.248184 0.479970
vn 0.837513 0.503908 0.211303
vn 0.795410 0.542207 0.270803
vn 0.795410 0.542207 0.270803
vn 0.837513 0.503908 0.211303
vn 0.862875 0.485986 0.138796
vn 0.792285 -0.383593 0.474491
vn 0.862666 -0.198292 0.465282
vn 0.626404 -0.557403 0.544903
vn -0.022999 -0.999678 0.010700
vn -0.121195 -0.959663 0.253690
vn -0.214001 -0.960404 0.178401
vn 0.608302 -0.782602 0.132300
vn 0.583790 -0.596690 0.550591
vn 0.467975 -0.709362 0.527072
vn -0.402179 -0.812259 0.422478
vn -0.477801 -0.843902 0.244000
vn -0.498526 -0.807142 0.316217
vn -0.477801 -0.843902 0.244000
vn -0.346291 -0.909976 0.228094
vn -0.623809 -0.766812 0.151202
vn -0.817132 -0.567622 -0.100504
vn -0.661516 -0.736917 -0.139103
vn -0.744491 -0.604593 -0.283197
vn -0.540195 -0.840293 0.045800
vn -0.306602 -0.904806 0.295502
vn -0.600414 -0.799619 0.010600
vn -0.600414 -0.799619 0.010600
vn -0.315613 -0.780233 0.540023
vn -0.661277 -0.747475 0.063198
vn -0.661277 -0.747475 0.063198
vn -0.315613 -0.780233 0.540023
vn -0.595574 -0.580674 0.555076
vn -0.766198 -0.639499 0.063100
vn -0.595574 -0.580674 0.555076
vn -0.767008 -0.492805 0.410904
vn -0.887969 -0.044098 -0.457784
vn -0.989565 0.128795 -0.064598
vn -0.673274 0.598777 -0.433783
vn -0.267511 0.962338 0.048402
vn -0.574525 0.652128 0.494621
vn -0.266915 0.933251 0.240413
vn -0.845907 0.340603 0.410403
vn -0.792964 0.439380 0.422081
vn -0.707675 0.526481 0.471183
vn 0.571220 0.781827 -0.249909
vn 0.530692 0.797388 -0.287296
vn 0.714196 0.668296 -0.208099
vn 0.156803 0.921118 -0.356307
vn 0.164095 0.983673 -0.073898
vn 0.609294 0.792392 0.029600
vn 0.714196 0.668296 -0.208099
vn 0.736462 0.662566 0.136493
vn 0.751498 0.659498 0.017700
vn 0.583790 -0.596690 0.550591
vn 0.608302 -0.782602 0.132300
vn 0.823699 -0.537899 0.179400
vn 0.608302 -0.782602 0.132300
vn 0.440291 -0.895781 -0.060999
vn 0.757012 -0.647311 -0.089001
vn 0.608302 -0.782602 0.132300
vn 0.757012 -0.647311 -0.089001
vn 0.823699 -0.537899 0.179400
vn 0.999198 0.040000 0.001600
vn 0.978711 -0.182502 -0.093901
vn 0.998238 0.039702 -0.044102
vn 0.998238 0.039702 -0.044102
vn 0.956438 -0.101804 -0.273611
vn 0.961874 0.057898 -0.267293
vn -0.576508 -0.805711 0.135902
vn -0.593107 -0.796709 0.116101
vn -0.564692 -0.713490 0.414794
vn -0.593107 -0.796709 0.116101
vn -0.689400 -0.715000 0.116200
vn -0.564692 -0.713490 0.414794
vn -0.604084 -0.771779 0.198595
vn -0.893488 -0.315396 -0.319696
vn -0.798379 -0.566585 -0.203895
vn -0.583089 -0.805385 -0.106598
vn -0.229907 -0.898725 -0.373411
vn -0.194997 -0.980686 -0.015200
vn -0.194997 -0.980686 -0.015200
vn -0.229907 -0.898725 -0.373411
vn 0.007100 -0.967019 -0.254605
vn -0.194997 -0.980686 -0.015200
vn 0.007100 -0.967019 -0.254605
vn -0.010100 -0.999525 -0.029101
vn -0.958657 -0.250289 -0.135394
vn -0.927094 -0.175699 -0.331098
vn -0.792934 -0.460220 -0.399317
vn -0.958657 -0.250289 -0.135394
vn -0.792934 -0.460220 -0.399317
vn -0.766198 -0.639499 0.063100
vn -0.766198 -0.639499 0.063100
vn -0.792934 -0.460220 -0.399317
vn -0.707291 -0.637792 -0.304896
vn -0.927094 -0.175699 -0.331098
vn -0.830149 -0.281483 -0.481270
vn -0.792934 -0.460220 -0.399317
vn -0.830149 -0.281483 -0.481270
vn -0.743913 -0.273805 -0.609610
vn -0.795421 -0.422911 -0.434111
vn -0.694465 -0.196890 -0.692065
vn -0.648351 -0.347027 -0.677653
vn -0.646196 -0.145899 -0.749095
vn -0.694465 -0.196890 -0.692065
vn -0.646196 -0.145899 -0.749095
vn -0.743913 -0.273805 -0.609610
vn -0.783819 -0.381209 -0.490212
vn -0.795526 -0.212007 -0.567619
vn -0.786822 -0.199005 -0.584216
vn -0.055599 0.965078 -0.255994
vn -0.096498 0.878982 -0.466990
vn -0.138102 0.916514 -0.375406
vn -0.138102 0.916514 -0.375406
vn -0.187503 0.740813 -0.645011
vn -0.146494 0.797270 -0.585577
vn -0.220600 0.801998 -0.555099
vn -0.203696 0.763785 -0.612488
vn -0.474581 0.407184 -0.780368
vn -0.187503 0.740813 -0.645011
vn -0.204899 0.507398 -0.836997
vn -0.146494 0.797270 -0.585577
vn 0.783625 0.412613 0.464415
vn 0.813135 0.548224 0.195608
vn 0.702405 0.674305 0.227902
vn 0.696287 0.708987 -0.111898
vn 0.641297 0.727396 -0.244199
vn 0.629123 0.751027 -0.200407
vn 0.629123 0.751027 -0.200407
vn 0.641297 0.727396 -0.244199
vn 0.554578 0.790769 -0.259090
vn 0.531618 0.802727 -0.270209
vn 0.490912 0.795820 -0.354509
vn 0.546225 0.803937 -0.235211
vn -0.076797 -0.458885 0.885171
vn -0.326902 -0.573303 0.751304
vn -0.035299 -0.504185 0.862874
vn 0.356915 -0.066903 0.931738
vn -0.035299 -0.504185 0.862874
vn 0.512875 -0.201590 0.834459
vn -0.326902 -0.573303 0.751304
vn -0.237506 -0.631016 0.738519
vn -0.035299 -0.504185 0.862874
vn 0.288088 -0.587676 0.756070
vn 0.031401 -0.828224 0.559516
vn 0.562695 -0.652395 0.507696
vn -0.515319 -0.761929 0.392315
vn -0.623809 -0.766812 0.151202
vn -0.429299 -0.715998 0.550499
vn 0.031401 -0.828224 0.559516
vn 0.349496 -0.798291 0.490494
vn 0.562695 -0.652395 0.507696
vn 0.084496 -0.311585 0.946454
vn -0.074502 -0.260406 0.962621
vn 0.038499 -0.460986 0.886572
vn 0.084496 -0.311585 0.946454
vn 0.038499 -0.460986 0.886572
vn -0.076797 -0.458885 0.885171
vn -0.074502 -0.260406 0.962621
vn -0.158698 -0.518393 0.840288
vn 0.038499 -0.460986 0.886572
vn -0.326311 -0.335211 0.883830
vn -0.475093 -0.331295 0.815188
vn -0.228704 -0.472907 0.850913
vn -0.326311 -0.335211 0.883830
vn -0.228704 -0.472907 0.850913
vn -0.158698 -0.518393 0.840288
vn -0.158698 -0.518393 0.840288
vn -0.228704 -0.472907 0.850913
vn 0.031201 -0.662929 0.748032
vn -0.158698 -0.518393 0.840288
vn 0.031201 -0.662929 0.748032
vn -0.174989 -0.715956 0.675859
vn -0.174989 -0.715956 0.675859
vn 0.031201 -0.662929 0.748032
vn -0.151792 -0.839657 0.521474
vn -0.228704 -0.472907 0.850913
vn -0.595574 -0.580674 0.555076
vn -0.315613 -0.780233 0.540023
vn 0.457109 0.161003 0.874717
vn 0.177406 0.143405 0.973633
vn -0.117703 -0.215306 0.969427
vn 0.457109 0.161003 0.874717
vn -0.117703 -0.215306 0.969427
vn 0.084496 -0.311585 0.946454
vn 0.395090 0.548686 0.736782
vn 0.299398 0.680594 0.668694
vn -0.356598 0.666196 0.654996
vn -0.275312 0.260312 0.925441
vn -0.356598 0.666196 0.654996
vn -0.703761 0.334681 0.626665
vn -0.387898 -0.052700 0.920195
vn -0.640223 0.093903 0.762428
vn -0.326311 -0.335211 0.883830
vn -0.326311 -0.335211 0.883830
vn -0.640223 0.093903 0.762428
vn -0.475093 -0.331295 0.815188
vn -0.703761 0.334681 0.626665
vn -0.707675 0.526481 0.471183
vn -0.792964 0.439380 0.422081
vn 0.500408 0.515208 0.695811
vn 0.279293 0.590485 0.757181
vn 0.550417 0.603018 0.577417
vn 0.550417 0.603018 0.577417
vn 0.279293 0.590485 0.757181
vn 0.522869 0.539868 0.659660
vn 0.550417 0.603018 0.577417
vn 0.522869 0.539868 0.659660
vn 0.719491 0.472394 0.509094
vn 0.395090 0.548686 0.736782
vn 0.723314 0.367007 0.584912
vn 0.299398 0.680594 0.668694
vn 0.573599 0.424600 0.700499
vn 0.759516 0.534311 0.371008
vn 0.729401 0.507601 0.458601
s off
g asteroid5:asteroid
usemtl asteroid5:initialShadingGroup
f 17/1/1 2/2/2 3/3/3
f 17/1/4 3/3/5 1/4/6
f 1/4/7 3/3/8 4/5/9
f 5/6/10 14/7/11 6/8/12
f 14/7/13 1/4/14 7/9/15
f 14/7/16 7/9/17 6/8/18
f 6/8/19 7/9/20 8/10/21
f 1/4/22 4/5/23 7/9/24
f 14/11/25 5/12/26 9/13/27
f 5/12/28 6/14/29 9/13/30
f 6/8/31 8/10/32 10/15/33
f 6/14/34 10/16/35 9/13/36
f 9/13/37 10/16/38 13/17/39
f 8/10/40 11/18/41 10/15/42
f 10/16/43 11/19/44 12/20/45
f 10/16/46 12/20/47 13/17/48
f 8/10/49 40/21/50 11/18/51
f 9/13/52 13/17/53 14/7/54
f 14/7/55 13/17/56 16/22/57
f 13/17/58 15/23/59 16/22/60
f 13/17/61 41/24/62 15/23/63
f 14/7/64 16/22/65 1/4/66
f 16/22/67 17/1/68 1/4/69
f 2/2/70 18/25/71 20/26/72
f 18/25/73 19/27/74 20/26/75
f 20/26/76 19/27/77 22/28/78
f 37/29/79 20/26/80 22/28/81
f 21/30/82 23/31/83 38/32/84
f 21/30/85 22/28/86 23/31/87
f 38/32/88 23/31/89 27/33/90
f 23/31/91 24/34/92 27/33/93
f 40/21/94 25/35/95 39/36/96
f 27/33/97 28/37/98 25/35/99
f 25/35/100 28/37/101 26/38/102
f 26/38/103 28/37/104 29/39/105
f 26/40/106 29/41/107 30/42/108
f 41/24/109 32/43/110 31/44/111
f 31/44/112 33/45/113 35/46/114
f 31/44/115 32/43/116 33/45/117
f 34/47/118 36/48/119 42/49/120
f 34/47/121 35/46/122 36/48/123
f 42/49/124 36/48/125 18/25/126
f 22/28/127 21/30/128 37/29/129
f 21/30/130 4/5/131 3/3/132
f 21/30/133 3/3/134 37/29/135
f 37/29/136 3/3/137 20/26/138
f 20/26/139 3/3/140 2/2/141
f 27/33/142 25/35/143 38/32/144
f 25/35/145 8/10/146 38/32/147
f 25/35/148 40/21/149 8/10/150
f 8/10/151 7/9/152 38/32/153
f 38/32/154 7/9/155 4/5/156
f 38/32/157 4/5/158 21/30/159
f 30/42/160 32/43/161 39/50/162
f 30/42/163 39/50/164 26/40/165
f 26/40/166 39/50/167 25/51/168
f 32/43/169 41/24/170 39/50/171
f 41/24/172 40/52/173 39/50/174
f 41/24/175 13/17/176 12/20/177
f 41/24/178 12/20/179 40/52/180
f 40/21/181 12/53/182 11/18/183
f 35/46/184 34/47/185 31/44/186
f 31/44/187 34/47/188 41/24/189
f 34/47/190 16/22/191 15/23/192
f 34/47/193 15/23/194 41/24/195
f 18/25/196 2/2/197 42/49/198
f 2/2/199 17/1/200 42/49/201
f 42/49/202 17/1/203 16/22/204
f 42/49/205 16/22/206 34/47/207
f 49/54/208 46/55/209 43/56/210
f 49/54/211 43/56/212 22/28/213
f 46/55/214 24/34/215 43/56/216
f 43/56/217 24/34/218 22/28/219
f 46/55/220 27/33/221 24/34/222
f 24/34/223 23/31/224 22/28/225
f 44/57/226 48/58/227 46/59/228
f 44/60/229 46/55/230 49/54/231
f 48/58/232 45/61/233 46/59/234
f 48/58/235 29/41/236 47/62/237
f 48/58/238 47/62/239 45/61/240
f 45/63/241 47/64/242 28/37/243
f 45/63/244 28/37/245 46/55/246
f 46/55/247 28/37/248 27/33/249
f 47/64/250 29/39/251 28/37/252
f 49/54/253 50/65/254 48/58/255
f 49/54/256 48/58/257 44/57/258
f 50/65/259 35/46/260 33/45/261
f 50/65/262 33/45/263 30/42/264
f 50/65/265 30/42/266 48/58/267
f 48/58/268 30/42/269 29/41/270
f 30/42/271 33/45/272 32/43/273
f 19/27/274 18/25/275 49/54/276
f 49/54/277 18/25/278 36/48/279
f 49/54/280 36/48/281 50/65/282
f 50/65/283 36/48/284 35/46/285
f 49/54/286 22/28/287 19/27/288
