# This file uses centimeters as units for non-parametric coordinates.

mtllib asteroid3.mtl
g default
v -2.207500 22.949646 0.878600
v 21.032301 5.756747 -10.306100
v 0.947500 12.644646 -8.325100
v 6.361500 1.698246 -18.650600
v -12.868500 18.328247 -4.927600
v -18.610399 18.648045 -1.454300
v -12.945300 9.518647 -7.892900
v -5.182500 5.869847 -17.582300
v -21.157200 17.093346 -4.886500
v -8.488600 20.501347 -2.896400
v -5.449500 22.895145 2.857600
v -13.693300 21.209045 17.880100
v -24.921801 15.385148 -3.143100
v -23.661501 13.985447 7.070500
v -9.110000 18.423347 21.926300
v 0.355500 25.658447 7.057600
v 4.502800 19.531948 20.815100
v 0.851900 10.435746 24.888000
v 4.460100 24.470245 12.169900
v 8.077500 22.583248 1.709700
v 16.487101 11.745747 5.382600
v 22.980200 1.876147 -1.756600
v 19.598801 -8.800754 4.674200
v 23.176300 -10.654253 -12.740200
v 15.537600 -0.267953 -22.168501
v 12.254300 -14.549553 -24.353100
v 1.919800 -3.036754 -25.189301
v -15.133900 5.532647 -16.614799
v -12.396900 -6.824052 -15.499700
v -20.179899 1.988646 -10.288100
v -5.122400 -21.600153 -20.689699
v -10.807300 -13.486253 -11.044100
v -15.402700 -7.980052 -10.060800
v -20.334000 2.707448 6.606000
v -16.281200 -2.643653 9.395900
v -3.617200 2.257348 20.566200
v 2.822200 -7.417253 15.287400
v 7.486200 -14.066654 7.786100
v 7.680000 0.708647 19.315399
v 22.693501 -4.121152 -17.974800
v -17.573601 -1.631454 -8.186500
v -23.231300 7.032446 -8.160400
v -24.430599 10.746548 -8.709000
v 17.588900 2.620846 8.100600
v 0.724900 -25.445553 -8.653700
v 2.347900 -21.623154 -3.676800
v 11.536800 -21.914152 -15.974400
v -4.108700 -22.948454 -9.809900
v -7.998300 -19.508154 -12.500800
v -2.237600 -21.079054 -3.533800
vt 0.816300 0.965500
vt 0.547300 0.763500
vt 0.726700 0.763500
vt 0.493100 0.581500
vt 0.583800 0.516500
vt 0.906000 0.898200
vt 0.906000 0.830900
vt 0.863400 0.719800
vt 0.963100 0.790200
vt 0.948600 0.719800
vt 0.745900 0.573400
vt 0.816300 0.584200
vt 0.099000 0.965500
vt 0.009300 0.898200
vt 0.188600 0.898200
vt 0.009300 0.830900
vt 0.066400 0.790200
vt 0.231200 0.719800
vt 0.051900 0.719800
vt 0.080400 0.655100
vt 0.153900 0.646100
vt 0.259800 0.655100
vt 0.278300 0.965500
vt 0.368000 0.898200
vt 0.425100 0.790200
vt 0.368000 0.696200
vt 0.313700 0.581500
vt 0.457600 0.965500
vt 0.457600 0.458300
vt 0.529600 0.457400
vt 0.637000 0.458300
vt 0.350200 0.457400
vt 0.457600 0.279600
vt 0.602300 0.329800
vt 0.690200 0.516500
vt 0.779800 0.459300
vt 0.708100 0.320700
vt 0.858900 0.256000
vt 0.886800 0.573400
vt 0.906000 0.391600
vt 0.959200 0.459300
vt 0.976400 0.402500
vt 0.953100 0.256000
vt 0.961000 0.329800
vt 0.170900 0.457400
vt 0.188600 0.391600
vt 0.278300 0.458300
vt 0.064300 0.329800
vt 0.313000 0.329800
vt 0.335400 0.185600
vt 0.079700 0.402500
vt 0.081200 0.518400
vt 0.062500 0.459300
vt 0.977900 0.518400
vt 0.960300 0.581500
vt 0.063500 0.581500
vt 0.977100 0.655100
vt 0.547300 0.010300
vt 0.816300 0.077600
vt 0.694100 0.185600
vt 0.906000 0.010300
vt 0.995700 0.077600
vt 0.906000 0.121700
vt 0.938600 0.185600
vt 0.041800 0.185600
vt 0.056300 0.256000
vt 0.009300 0.121700
vt 0.099000 0.077600
vt 0.368000 0.010300
vn 0.178501 0.639705 -0.747606
vn -0.192797 0.808588 -0.555891
vn -0.095098 0.698784 -0.708984
vn 0.762863 0.640069 -0.091395
vn 0.868151 0.486728 0.097006
vn 0.587106 0.741008 -0.325904
vn 0.178501 0.639705 -0.747606
vn 0.119893 0.681260 -0.722157
vn -0.082504 0.844838 -0.528623
vn -0.082504 0.844838 -0.528623
vn 0.119893 0.681260 -0.722157
vn -0.237704 0.702311 -0.671011
vn 0.045700 0.604497 -0.795296
vn -0.238096 0.626590 -0.742088
vn -0.182604 0.407810 -0.894621
vn -0.182604 0.407810 -0.894621
vn 0.061299 0.626892 -0.776691
vn -0.088301 0.535807 -0.839711
vn -0.088301 0.535807 -0.839711
vn 0.061299 0.626892 -0.776691
vn 0.166496 0.694983 -0.699483
vn -0.007100 0.695139 -0.718840
vn 0.213996 0.872785 -0.438693
vn -0.111602 0.854212 -0.507807
vn -0.007100 0.695139 -0.718840
vn -0.111602 0.854212 -0.507807
vn -0.238096 0.626590 -0.742088
vn 0.145399 0.790092 -0.595494
vn -0.082504 0.844838 -0.528623
vn -0.269988 0.943058 -0.194291
vn -0.237704 0.702311 -0.671011
vn -0.119795 0.954157 -0.274288
vn -0.300811 0.936233 -0.181606
vn -0.300811 0.936233 -0.181606
vn -0.344782 0.937151 -0.053597
vn -0.304191 0.935471 -0.179894
vn -0.304191 0.935471 -0.179894
vn -0.344782 0.937151 -0.053597
vn -0.472504 0.878407 -0.071701
vn -0.119795 0.954157 -0.274288
vn -0.229293 0.761078 -0.606782
vn -0.466217 0.883432 0.046802
vn -0.344782 0.937151 -0.053597
vn -0.466217 0.883432 0.046802
vn -0.603282 0.781376 0.159695
vn -0.344782 0.937151 -0.053597
vn -0.603282 0.781376 0.159695
vn -0.472504 0.878407 -0.071701
vn -0.772554 0.536068 0.340280
vn -0.895291 0.031100 0.444395
vn -0.695932 -0.330315 0.637629
vn 0.145399 0.790092 -0.595494
vn -0.269988 0.943058 -0.194291
vn -0.018800 0.993024 -0.116403
vn -0.246510 0.968141 0.044002
vn -0.190002 0.981109 0.036400
vn -0.061699 0.968288 0.242097
vn -0.246510 0.968141 0.044002
vn -0.061699 0.968288 0.242097
vn -0.092501 0.969115 0.228604
vn -0.190002 0.981109 0.036400
vn -0.072300 0.796801 0.599901
vn -0.061699 0.968288 0.242097
vn -0.539510 0.669712 0.510309
vn -0.389885 0.157094 0.907365
vn -0.072300 0.796801 0.599901
vn 0.048300 0.659900 0.749800
vn -0.145507 0.218411 0.964948
vn 0.157104 0.308608 0.938125
vn -0.018800 0.993024 -0.116403
vn 0.231100 0.966098 -0.115100
vn 0.083001 0.881513 -0.464807
vn 0.083001 0.881513 -0.464807
vn 0.231100 0.966098 -0.115100
vn -0.056801 0.909317 -0.412208
vn 0.688404 0.662804 0.294602
vn 0.742278 0.653681 0.147396
vn 0.828431 0.503319 0.245709
vn 0.843317 0.499610 0.198004
vn 0.730011 0.660010 0.177403
vn 0.747198 0.660299 0.075500
vn 0.856416 0.489109 0.165303
vn 0.905314 0.131402 0.403906
vn 0.922208 0.244602 0.299503
vn 0.776220 0.627416 0.061902
vn 0.922208 0.244602 0.299503
vn 0.927810 0.370904 -0.040000
vn 0.869183 0.352793 -0.346493
vn 0.993486 0.029400 -0.110098
vn 0.931524 -0.181405 -0.315208
vn 0.850957 0.137293 0.506974
vn 0.743977 -0.055698 0.665880
vn 0.959433 -0.115904 0.257009
vn 0.850957 0.137293 0.506974
vn 0.959433 -0.115904 0.257009
vn 0.941095 0.036200 0.336198
vn 0.993486 0.029400 -0.110098
vn 0.891807 -0.412004 0.186902
vn 0.869997 -0.492898 -0.012500
vn 0.993486 0.029400 -0.110098
vn 0.869997 -0.492898 -0.012500
vn 0.931524 -0.181405 -0.315208
vn -0.064903 0.577029 -0.814141
vn -0.088098 0.510288 -0.855480
vn -0.053898 0.650175 -0.757871
vn -0.053898 0.650175 -0.757871
vn -0.088098 0.510288 -0.855480
vn 0.233010 0.649329 -0.723932
vn -0.088098 0.510288 -0.855480
vn 0.129800 0.353200 -0.926500
vn 0.233010 0.649329 -0.723932
vn -0.131298 -0.066899 -0.989083
vn -0.099499 -0.242297 -0.965087
vn -0.361698 0.001600 -0.932294
vn -0.553506 -0.066201 -0.830210
vn -0.566508 -0.251903 -0.784611
vn -0.724994 -0.440596 -0.529395
vn -0.838143 -0.534427 -0.109106
vn -0.837191 -0.434995 -0.331496
vn -0.880602 -0.421301 -0.216900
vn -0.511890 0.109198 -0.852083
vn -0.103097 -0.002400 -0.994668
vn -0.608785 -0.158796 -0.777281
vn -0.837191 -0.434995 -0.331496
vn -0.868523 -0.419611 -0.263807
vn -0.834363 -0.440780 -0.330985
vn -0.837191 -0.434995 -0.331496
vn -0.834363 -0.440780 -0.330985
vn -0.880602 -0.421301 -0.216900
vn -0.695932 -0.330315 0.637629
vn -0.672607 -0.465305 0.575406
vn -0.584308 -0.420306 0.694210
vn -0.672607 -0.465305 0.575406
vn -0.750702 -0.033300 0.659801
vn -0.584308 -0.420306 0.694210
vn -0.728517 -0.048401 0.683316
vn -0.468805 -0.477505 0.743109
vn -0.574507 -0.105201 0.811711
vn -0.574507 -0.105201 0.811711
vn -0.468805 -0.477505 0.743109
vn -0.395909 -0.637014 0.661415
vn -0.905770 -0.423486 -0.015499
vn -0.776838 -0.591529 0.215910
vn -0.804614 -0.558310 0.202204
vn 0.409507 -0.035501 0.911616
vn 0.650402 -0.247601 0.718102
vn 0.725879 0.345790 0.594583
vn 0.725879 0.345790 0.594583
vn 0.650402 -0.247601 0.718102
vn 0.842629 -0.009100 0.538418
vn 0.601994 -0.447395 0.661393
vn 0.347794 -0.647589 0.677988
vn 0.483696 -0.458396 0.745594
vn 0.728813 -0.547710 -0.410907
vn 0.730609 -0.329904 -0.597807
vn 0.931524 -0.181405 -0.315208
vn 0.730609 -0.329904 -0.597807
vn 0.462083 0.130595 -0.877168
vn 0.890725 0.149904 -0.429112
vn 0.759505 0.541004 -0.361202
vn 0.604981 0.669579 -0.430886
vn 0.469570 0.722553 -0.507367
vn 0.316003 0.704106 -0.635906
vn -0.064502 0.657225 -0.750929
vn 0.388591 0.717584 -0.577987
vn 0.604981 0.669579 -0.430886
vn 0.388591 0.717584 -0.577987
vn 0.556602 0.700402 -0.446801
vn -0.511890 0.109198 -0.852083
vn -0.432098 0.156199 -0.888197
vn -0.361698 0.001600 -0.932294
vn -0.481712 -0.046001 -0.875122
vn -0.322095 0.115098 -0.939685
vn -0.297798 0.298698 -0.906695
vn -0.076598 0.584486 -0.807780
vn -0.140499 0.714296 -0.685596
vn 0.363610 0.871024 -0.330309
vn -0.159608 0.560628 -0.812540
vn 0.124196 0.758374 -0.639878
vn 0.293212 0.821634 -0.488820
vn -0.159608 0.560628 -0.812540
vn 0.293212 0.821634 -0.488820
vn -0.019600 0.730902 -0.682201
vn -0.905770 -0.423486 -0.015499
vn -0.910178 -0.397790 0.115497
vn -0.872897 -0.474899 -0.111900
vn -0.910178 -0.397790 0.115497
vn -0.862086 -0.505892 0.029700
vn -0.872897 -0.474899 -0.111900
vn -0.872897 -0.474899 -0.111900
vn -0.886301 -0.433401 -0.163200
vn -0.838143 -0.534427 -0.109106
vn -0.848870 -0.311889 0.426785
vn -0.913678 -0.271794 0.302193
vn -0.862086 -0.505892 0.029700
vn -0.886301 -0.433401 -0.163200
vn -0.725803 0.283201 -0.626903
vn -0.791207 -0.210702 -0.574105
vn -0.791207 -0.210702 -0.574105
vn -0.725803 0.283201 -0.626903
vn -0.480488 0.359391 -0.799981
vn -0.992222 -0.086202 -0.089802
vn -0.874727 0.443914 0.194406
vn -0.779689 0.562892 -0.274296
vn -0.992222 -0.086202 -0.089802
vn -0.779689 0.562892 -0.274296
vn -0.725803 0.283201 -0.626903
vn -0.725803 0.283201 -0.626903
vn -0.779689 0.562892 -0.274296
vn -0.239604 0.616011 -0.750413
vn -0.725803 0.283201 -0.626903
vn -0.239604 0.616011 -0.750413
vn -0.480488 0.359391 -0.799981
vn 0.070502 -0.461712 0.884224
vn 0.161307 -0.455620 0.875437
vn -0.174999 -0.413999 0.893297
vn 0.070502 -0.461712 0.884224
vn -0.174999 -0.413999 0.893297
vn -0.281099 -0.383099 0.879897
vn 0.933827 0.079802 0.348710
vn 0.789530 0.562422 0.245609
vn 0.811014 0.480308 0.334006
vn 0.367499 -0.832398 0.414799
vn 0.356104 -0.924110 0.138602
vn 0.638291 -0.724989 0.258796
vn -0.143901 -0.969109 -0.200302
vn -0.120094 -0.897059 -0.425280
vn 0.200593 -0.928568 -0.312289
vn 0.322391 -0.732179 -0.599982
vn 0.000400 -0.423296 -0.905991
vn 0.409993 -0.420092 -0.809585
vn 0.669434 -0.602030 -0.435222
vn 0.684160 -0.508770 -0.522569
vn 0.720996 -0.626396 -0.296298
vn 0.048999 -0.835181 0.547788
vn -0.162807 -0.885039 0.436119
vn -0.145899 -0.959897 0.239399
vn -0.162807 -0.885039 0.436119
vn -0.493387 -0.869677 0.015200
vn -0.145899 -0.959897 0.239399
vn -0.493387 -0.869677 0.015200
vn -0.771962 -0.610270 -0.177891
vn -0.466310 -0.879019 -0.099402
vn -0.493387 -0.869677 0.015200
vn -0.466310 -0.879019 -0.099402
vn -0.143901 -0.969109 -0.200302
vn -0.859451 -0.510271 0.031098
vn -0.789697 -0.613497 -0.000400
vn -0.860862 -0.479779 -0.169493
vn -0.771962 -0.610270 -0.177891
vn -0.860862 -0.479779 -0.169493
vn -0.816283 -0.562788 -0.130197
vn -0.789697 -0.613497 -0.000400
vn -0.834363 -0.440780 -0.330985
vn -0.860862 -0.479779 -0.169493
vn -0.816283 -0.562788 -0.130197
vn -0.868523 -0.419611 -0.263807
vn -0.880284 -0.256095 -0.399393
vn -0.620589 -0.744087 0.247396
vn -0.632293 -0.568894 0.525894
vn -0.859451 -0.510271 0.031098
vn -0.405599 -0.605199 0.684999
vn -0.329793 -0.730184 0.598387
vn -0.467995 -0.480494 0.741691
vn -0.467995 -0.480494 0.741691
vn -0.329793 -0.730184 0.598387
vn -0.215800 -0.678799 0.701899
vn -0.632293 -0.568894 0.525894
vn -0.595727 -0.697632 0.398018
vn -0.859451 -0.510271 0.031098
vn 0.072496 -0.887651 0.454775
vn 0.258203 -0.856509 0.446905
vn -0.236208 -0.693022 0.681122
vn 0.427410 -0.570013 0.701716
vn 0.423119 -0.346416 0.837238
vn 0.483696 -0.458396 0.745594
vn -0.158502 -0.801211 0.577008
vn -0.159503 -0.690514 0.705514
vn -0.445801 -0.734802 0.511202
vn 0.367499 -0.832398 0.414799
vn 0.638291 -0.724989 0.258796
vn 0.589288 -0.747284 0.307094
vn 0.275094 -0.823782 0.495689
vn 0.589288 -0.747284 0.307094
vn 0.481104 -0.822007 0.304703
vn 0.638291 -0.724989 0.258796
vn 0.708272 -0.705372 -0.028299
vn 0.642418 -0.724220 0.250607
s off
g asteroid
usemtl asteroid3:initialShadingGroup
f 1/1/1 20/2/2 3/3/3
f 20/2/4 21/4/5 2/5/6
f 1/1/7 3/3/8 10/6/9
f 10/6/10 3/3/11 5/7/12
f 3/3/13 7/8/14 5/7/15
f 5/7/16 7/8/17 6/9/18
f 6/9/19 7/8/20 9/10/21
f 3/3/22 4/11/23 8/12/24
f 3/3/25 8/12/26 7/8/27
f 1/13/28 10/14/29 11/15/30
f 5/16/31 6/17/32 10/14/33
f 10/14/34 6/17/35 11/15/36
f 11/15/37 6/17/38 12/18/39
f 6/17/40 9/19/41 13/20/42
f 6/17/43 13/20/44 14/21/45
f 6/17/46 14/21/47 12/18/48
f 12/18/49 14/21/50 15/22/51
f 1/23/52 11/15/53 16/24/54
f 11/15/55 12/18/56 19/25/57
f 11/15/58 19/25/59 16/24/60
f 12/18/61 17/26/62 19/25/63
f 12/18/64 15/22/65 17/26/66
f 17/26/67 15/22/68 18/27/69
f 16/24/70 19/25/71 1/28/72
f 1/28/73 19/25/74 20/2/75
f 19/25/76 17/26/77 20/2/78
f 20/2/79 17/26/80 21/4/81
f 21/4/82 44/29/83 22/30/84
f 21/4/85 22/30/86 2/5/87
f 2/5/88 22/30/89 40/31/90
f 44/29/91 39/32/92 23/33/93
f 44/29/94 23/33/95 22/30/96
f 22/30/97 23/33/98 24/34/99
f 22/30/100 24/34/101 40/31/102
f 3/3/103 25/35/104 4/11/105
f 4/11/106 25/35/107 27/36/108
f 25/35/109 26/37/110 27/36/111
f 26/37/112 31/38/113 27/36/114
f 28/39/115 29/40/116 30/41/117
f 30/41/118 29/40/119 41/42/120
f 29/40/121 27/36/122 31/38/123
f 29/40/124 32/43/125 33/44/126
f 29/40/127 33/44/128 41/42/129
f 15/22/130 14/21/131 18/27/132
f 14/21/133 34/45/134 18/27/135
f 34/45/136 35/46/137 18/27/138
f 18/27/139 35/46/140 36/47/141
f 33/48/142 35/46/143 34/45/144
f 18/27/145 39/32/146 17/26/147
f 17/26/148 39/32/149 44/29/150
f 39/32/151 37/49/152 38/50/153
f 24/34/154 26/37/155 40/31/156
f 26/37/157 25/35/158 40/31/159
f 40/31/160 25/35/161 2/5/162
f 25/35/163 3/3/164 20/2/165
f 25/35/166 20/2/167 2/5/168
f 29/40/169 8/12/170 27/36/171
f 29/40/172 28/39/173 8/12/174
f 27/36/175 8/12/176 4/11/177
f 28/39/178 9/10/179 7/8/180
f 28/39/181 7/8/182 8/12/183
f 33/48/184 34/45/185 41/51/186
f 34/45/187 42/52/188 41/51/189
f 41/51/190 42/52/191 30/53/192
f 34/45/193 14/21/194 42/52/195
f 42/54/196 43/55/197 30/41/198
f 30/41/199 43/55/200 28/39/201
f 42/52/202 14/21/203 13/20/204
f 42/52/205 13/20/206 43/56/207
f 43/55/208 13/57/209 9/10/210
f 43/55/211 9/10/212 28/39/213
f 37/49/214 39/32/215 18/27/216
f 37/49/217 18/27/218 36/47/219
f 44/29/220 21/4/221 17/26/222
f 46/58/223 45/59/224 47/60/225
f 45/59/226 31/38/227 47/60/228
f 47/60/229 31/38/230 26/37/231
f 47/60/232 26/37/233 24/34/234
f 46/61/235 50/62/236 45/59/237
f 50/62/238 48/63/239 45/59/240
f 48/63/241 49/64/242 31/38/243
f 48/63/244 31/38/245 45/59/246
f 49/65/247 35/46/248 32/66/249
f 49/64/250 32/43/251 31/38/252
f 35/46/253 33/48/254 32/66/255
f 31/38/256 32/43/257 29/40/258
f 48/67/259 50/68/260 49/65/261
f 38/50/262 36/47/263 50/68/264
f 50/68/265 36/47/266 35/46/267
f 50/68/268 35/46/269 49/65/270
f 46/69/271 38/50/272 50/68/273
f 23/33/274 39/32/275 38/50/276
f 38/50/277 37/49/278 36/47/279
f 46/58/280 47/60/281 23/33/282
f 46/58/283 23/33/284 38/50/285
f 47/60/286 24/34/287 23/33/288
